<svg xmlns="http://www.w3.org/2000/svg" width="850" height="368.176" viewBox="0 0 850 368.176">
  <title>logo-vee-2019-yellow</title>
  <g>
    <path d="M184.088,0C82.418,0,0,82.42,0,184.089a184.088,184.088,0,0,0,368.175,0C368.175,82.42,285.757,0,184.088,0ZM343.867,184.1A159.794,159.794,0,1,1,184.088,24.294v-.021A159.974,159.974,0,0,1,343.867,184.089Z" fill="#fcd276"/>
    <path d="M284.938,154.643H256.961l23.483-55.736a3.092,3.092,0,0,0-2.85-4.3H251.926a3.1,3.1,0,0,0-2.88,1.944L186.851,251.831a3.1,3.1,0,0,1-5.753,0L118.924,96.583a3.1,3.1,0,0,0-2.879-1.944H90.378a3.1,3.1,0,0,0-2.859,4.3L111,154.672H83.23a3.1,3.1,0,0,0-2.858,4.289L88,177.269a3.1,3.1,0,0,0,2.857,1.9h30.469l10.43,24.769H104.037a3.1,3.1,0,0,0-2.858,4.283l7.624,18.271a3.1,3.1,0,0,0,2.857,1.907h30.4l25.667,60.91a3.093,3.093,0,0,0,2.851,1.893h26.756a3.1,3.1,0,0,0,2.858-1.893l25.667-60.91h30.543a3.1,3.1,0,0,0,2.858-1.907l7.623-18.271a3.1,3.1,0,0,0-2.859-4.283H236.191l10.428-24.769h30.7a3.1,3.1,0,0,0,2.857-1.929l7.623-18.308a3.1,3.1,0,0,0-2.858-4.289Z" fill="#fcd276"/>
    <path d="M689.961,183.8a1.982,1.982,0,0,0-.911.2l-19.915,9.655a1.942,1.942,0,0,0-1.067,1.359,51.526,51.526,0,0,1-44.174,40.117,50.348,50.348,0,0,1-42.944-15.29,1.994,1.994,0,0,1,.031-2.821,1.954,1.954,0,0,1,.516-.364l105.061-52.242a2.977,2.977,0,0,0,1.462-2.822c-1.4-12.3-27.772-58.4-82.214-50.019a73.649,73.649,0,0,0,5.847,146.033q3.194.284,6.394.284a77.369,77.369,0,0,0,48.128-17.921A72.643,72.643,0,0,0,691.9,185.82,1.98,1.98,0,0,0,689.961,183.8Zm-122.255,8.233a2.03,2.03,0,0,1-.19-.643,50.825,50.825,0,0,1,30.755-54.2h-.029A52.342,52.342,0,0,1,618.3,133a50.276,50.276,0,0,1,36.147,15.246,2.317,2.317,0,0,1-.367,3.256,2.242,2.242,0,0,1-.363.237L570.4,192.961A2.017,2.017,0,0,1,567.706,192.032Z" fill="#fcd276"/>
    <path d="M848.08,183.8a1.984,1.984,0,0,0-.931.205l-19.9,9.655a1.948,1.948,0,0,0-1.068,1.359,51.517,51.517,0,0,1-44.172,40.117,50.351,50.351,0,0,1-42.946-15.29,2,2,0,0,1,.033-2.821,1.922,1.922,0,0,1,.516-.364l105.06-52.242a2.988,2.988,0,0,0,1.462-2.822c-1.4-12.3-27.772-58.4-82.214-50.019a73.649,73.649,0,0,0,5.847,146.033q3.193.284,6.387.284a77.353,77.353,0,0,0,48.127-17.921A72.64,72.64,0,0,0,850,185.82,1.973,1.973,0,0,0,848.08,183.8Zm-122.224,8.237a2.012,2.012,0,0,1-.19-.643,50.824,50.824,0,0,1,30.718-54.2h-.029A52.338,52.338,0,0,1,776.417,133a50.293,50.293,0,0,1,36.148,15.246,2.31,2.31,0,0,1-.732,3.493l-83.279,41.221A2.017,2.017,0,0,1,725.856,192.032Z" fill="#fcd276"/>
    <path d="M551.541,110.442a2.008,2.008,0,0,0-.768-.156H526.7a2,2,0,0,0-1.863,1.258L480.757,221.588a2.01,2.01,0,0,1-3.728,0L432.951,111.544a2,2,0,0,0-1.863-1.258H407.013a2.01,2.01,0,0,0-2,2.015,2.031,2.031,0,0,0,.154.77l60.5,143.584a2.01,2.01,0,0,0,1.849,1.235h22.759a2.015,2.015,0,0,0,1.849-1.235l60.5-143.584A2.01,2.01,0,0,0,551.541,110.442Z" fill="#fcd276"/>
  </g>
</svg>
